# xmcd
#
# Track frame offsets: 
#        150
#        20658
#        37133
#        53190
#        69289
#        85269
#        102986
#        119950
#        138274
#        154472
#        173615
#        189451
#        206298
#        228995
#        242997
#        259415
#        273048
#        291198
#        307884
#        321924
#        338978
#
# Disc length: 4764 seconds
#
# Revision: 0
# Processed by: cddbd v1.5.2PL0 Copyright (c) Steve Scherf et al.
# Submitted via: ExactAudioCopy v0.99pb4
#
DISCID=39129a15
DTITLE=Various Artist - prevue promo 1123A-1
DYEAR=2003
DGENRE=pop
TTITLE0=Diana Krall - Crazy(Album "Remembering Patsy Cline")
TTITLE1=Sarah McLachlan - Fallen
TTITLE2=Michelle Branch - Breathe
TTITLE3=Celine Dion - Stand By Your Side
TTITLE4=Aja - Sunshine
TTITLE5=Thalia - Baby, I'm In Love
TTITLE6=112 and Ludacris - Hot and Wet(LYRIC CONTENT - "Clean Remix")
TTITLE7=Wyclef Jean and Missy Elliott - Party To Damascus(Lyric - "Rad
TTITLE7=io Edit With Intro")
TTITLE8=Sean Paul and Sasha - I'm Still In Love With You(Seven Inch Ra
TTITLE8=dio Edit)
TTITLE9=Ziggy Marley - Dragonfly
TTITLE10=Van Morrison - Once In A Blue Moon
TTITLE11=Mindy Smith - Jolene
TTITLE12=Bruce Cockburn - Tried and Tested
TTITLE13=Polyphonic Spree, The - Light And Day
TTITLE14=Motion City Soundtrack - Future Freaks Me Out, The
TTITLE15=Taking Back Sunday - You're So Last Summer
TTITLE16=Lynyrd Skynyrd - That's How I Like It
TTITLE17=Jane's Addiction - True Nature
TTITLE18=Alice Cooper - Novocaine(Lyric)
TTITLE19=Lo-Pro - Sunday
TTITLE20=Revis - Seven
EXTD=
EXTT0=
EXTT1=
EXTT2=
EXTT3=
EXTT4=
EXTT5=
EXTT6=
EXTT7=
EXTT8=
EXTT9=
EXTT10=
EXTT11=
EXTT12=
EXTT13=
EXTT14=
EXTT15=
EXTT16=
EXTT17=
EXTT18=
EXTT19=
EXTT20=
PLAYORDER=
